<?xml version="1.0" encoding="utf-8"?>
<!-- Generator: Adobe Illustrator 17.1.0, SVG Export Plug-In . SVG Version: 6.00 Build 0)  -->
<!DOCTYPE svg PUBLIC "-//W3C//DTD SVG 1.1//EN" "http://www.w3.org/Graphics/SVG/1.1/DTD/svg11.dtd">
<svg version="1.1" id="Layer_1" xmlns="http://www.w3.org/2000/svg" xmlns:xlink="http://www.w3.org/1999/xlink" x="0px" y="0px"
	 width="170px" height="40px" viewBox="0 0 170 40" enable-background="new 0 0 170 40" xml:space="preserve">
<g>
	<path fill="#FFFFFF" d="M169.4,0c0,2.2-0.3,8.9-3.3,16.3c-1,1.7-2.2,3.3-4.1,4.8c-3.1,2.5-8,2.1-8,2.1c0.2,7-2.1,10.8-4.4,12.9
		c-6.5,3.7-11.5,3.2-11.6,3.2L138,40c0,0,0.4,0,0.9,0c1.4,0,4.1-0.2,7.7-1.7c4.5-1.8,11.2-6.1,17.3-16.2C169.6,12.7,170,2.8,170,0
		H169.4z"/>
	<g enable-background="new    ">
		<path fill="#FFFFFF" d="M9.1,9.6c0,0.2,0,0.5,0,0.6c0,0.2-0.1,0.3-0.1,0.4c0,0.1-0.1,0.2-0.2,0.2c-0.1,0-0.1,0.1-0.2,0.1H3.3v4.3
			h5c0.1,0,0.1,0,0.2,0.1c0.1,0,0.1,0.1,0.2,0.2c0,0.1,0.1,0.2,0.1,0.4c0,0.2,0,0.4,0,0.6c0,0.2,0,0.5,0,0.6c0,0.2-0.1,0.3-0.1,0.4
			c0,0.1-0.1,0.2-0.2,0.2c-0.1,0-0.1,0.1-0.2,0.1h-5v6c0,0.1,0,0.2-0.1,0.2c-0.1,0.1-0.1,0.1-0.3,0.2c-0.1,0-0.3,0.1-0.5,0.1
			c-0.2,0-0.5,0-0.8,0c-0.3,0-0.6,0-0.8,0s-0.4-0.1-0.5-0.1s-0.2-0.1-0.3-0.2C0,24.1,0,24,0,23.9V9.3c0-0.4,0.1-0.6,0.3-0.8
			C0.5,8.3,0.7,8.3,1,8.3h7.6c0.1,0,0.1,0,0.2,0.1c0.1,0,0.1,0.1,0.2,0.2C9,8.7,9,8.8,9,9C9.1,9.1,9.1,9.4,9.1,9.6z"/>
		<path fill="#FFFFFF" d="M27.9,23c0,0.3,0,0.5,0,0.6c0,0.2-0.1,0.3-0.1,0.4c0,0.1-0.1,0.2-0.2,0.2s-0.1,0.1-0.2,0.1H20
			c-0.3,0-0.5-0.1-0.7-0.2C19.1,24,19,23.8,19,23.4V8.7c0-0.1,0-0.2,0.1-0.2c0.1-0.1,0.1-0.1,0.3-0.2c0.1,0,0.3-0.1,0.5-0.1
			s0.5,0,0.8,0c0.3,0,0.6,0,0.8,0c0.2,0,0.4,0.1,0.5,0.1c0.1,0,0.2,0.1,0.3,0.2c0.1,0.1,0.1,0.1,0.1,0.2v13h5.1c0.1,0,0.2,0,0.2,0.1
			s0.1,0.1,0.2,0.2c0,0.1,0.1,0.2,0.1,0.4C27.9,22.6,27.9,22.8,27.9,23z"/>
		<path fill="#FFFFFF" d="M40.4,24c0,0.1,0,0.2-0.1,0.2c-0.1,0.1-0.1,0.1-0.3,0.2c-0.1,0-0.3,0.1-0.5,0.1s-0.5,0-0.8,0
			c-0.3,0-0.6,0-0.8,0c-0.2,0-0.4-0.1-0.5-0.1c-0.1,0-0.2-0.1-0.3-0.2c-0.1-0.1-0.1-0.1-0.1-0.2V8.7c0-0.1,0-0.2,0.1-0.2
			c0.1-0.1,0.1-0.1,0.3-0.2c0.1,0,0.3-0.1,0.5-0.1s0.5,0,0.8,0c0.3,0,0.6,0,0.8,0s0.4,0.1,0.5,0.1c0.1,0,0.2,0.1,0.3,0.2
			c0.1,0.1,0.1,0.1,0.1,0.2V24z"/>
		<path fill="#FFFFFF" d="M62.2,13.2c0,0.9-0.1,1.7-0.4,2.4c-0.3,0.7-0.7,1.3-1.2,1.8c-0.5,0.5-1.2,0.8-2,1.1
			c-0.8,0.2-1.7,0.4-2.8,0.4h-1.3V24c0,0.1,0,0.2-0.1,0.2c-0.1,0.1-0.1,0.1-0.3,0.2c-0.1,0-0.3,0.1-0.5,0.1c-0.2,0-0.5,0-0.8,0
			c-0.3,0-0.6,0-0.8,0c-0.2,0-0.4-0.1-0.5-0.1c-0.1,0-0.2-0.1-0.3-0.2c0-0.1-0.1-0.1-0.1-0.2V9.4c0-0.4,0.1-0.7,0.3-0.9
			c0.2-0.2,0.5-0.3,0.8-0.3h3.8c0.4,0,0.7,0,1.1,0c0.3,0,0.8,0.1,1.2,0.2c0.5,0.1,1,0.3,1.5,0.5c0.5,0.3,0.9,0.6,1.3,1
			c0.3,0.4,0.6,0.9,0.8,1.4C62.1,11.9,62.2,12.5,62.2,13.2z M58.8,13.4c0-0.6-0.1-1-0.3-1.4c-0.2-0.4-0.4-0.6-0.7-0.8
			c-0.3-0.2-0.6-0.3-0.9-0.3c-0.3,0-0.7-0.1-1-0.1h-1.4v5.5h1.5c0.5,0,1-0.1,1.3-0.2c0.4-0.1,0.6-0.3,0.9-0.6
			c0.2-0.3,0.4-0.6,0.5-0.9C58.7,14.2,58.8,13.8,58.8,13.4z"/>
	</g>
	<g enable-background="new    ">
		<path fill="#FFFFFF" d="M82.7,19.9c0,0.8-0.1,1.4-0.4,2c-0.3,0.6-0.7,1.1-1.2,1.5c-0.5,0.4-1.1,0.7-1.7,0.9
			c-0.7,0.2-1.4,0.3-2.2,0.3c-0.5,0-1,0-1.5-0.1c-0.5-0.1-0.9-0.2-1.2-0.3c-0.4-0.1-0.7-0.3-0.9-0.4c-0.2-0.1-0.4-0.3-0.5-0.4
			c-0.1-0.1-0.2-0.2-0.2-0.4c0-0.2-0.1-0.4-0.1-0.6c0-0.2,0-0.3,0-0.5c0-0.1,0-0.2,0.1-0.3c0-0.1,0.1-0.1,0.1-0.2c0.1,0,0.1,0,0.2,0
			c0.1,0,0.3,0.1,0.5,0.2c0.2,0.1,0.5,0.3,0.8,0.5c0.3,0.2,0.7,0.3,1.2,0.5c0.5,0.1,1,0.2,1.6,0.2c0.5,0,0.9-0.1,1.3-0.2
			c0.4-0.1,0.7-0.3,1-0.5c0.3-0.2,0.5-0.5,0.6-0.8c0.2-0.3,0.2-0.7,0.2-1.1c0-0.5-0.1-0.8-0.3-1.2c-0.2-0.3-0.5-0.6-0.8-0.9
			c-0.3-0.2-0.7-0.5-1.2-0.7c-0.4-0.2-0.9-0.4-1.3-0.6c-0.5-0.2-0.9-0.4-1.3-0.7c-0.4-0.3-0.8-0.6-1.2-0.9c-0.3-0.3-0.6-0.8-0.8-1.2
			c-0.2-0.5-0.3-1-0.3-1.7c0-0.7,0.1-1.3,0.4-1.8c0.2-0.5,0.6-1,1-1.3c0.4-0.4,1-0.6,1.6-0.8c0.6-0.2,1.3-0.3,2-0.3
			c0.4,0,0.7,0,1.1,0.1c0.4,0.1,0.7,0.1,1,0.2c0.3,0.1,0.6,0.2,0.9,0.3C81.3,8.8,81.5,9,81.6,9c0.1,0.1,0.1,0.1,0.2,0.2
			c0,0,0,0.1,0.1,0.2c0,0.1,0,0.2,0,0.3c0,0.1,0,0.2,0,0.4c0,0.2,0,0.3,0,0.4c0,0.1,0,0.2-0.1,0.3c0,0.1-0.1,0.1-0.1,0.2
			c0,0-0.1,0.1-0.2,0.1c-0.1,0-0.2-0.1-0.4-0.2c-0.2-0.1-0.4-0.2-0.7-0.4c-0.3-0.1-0.6-0.3-1-0.4C79,9.9,78.5,9.8,78,9.8
			c-0.4,0-0.8,0.1-1.2,0.2c-0.3,0.1-0.6,0.3-0.8,0.5c-0.2,0.2-0.4,0.4-0.5,0.7c-0.1,0.3-0.2,0.6-0.2,0.9c0,0.4,0.1,0.8,0.3,1.2
			c0.2,0.3,0.5,0.6,0.8,0.9c0.3,0.2,0.7,0.5,1.2,0.7c0.4,0.2,0.9,0.4,1.3,0.6c0.5,0.2,0.9,0.4,1.3,0.7c0.4,0.3,0.8,0.6,1.2,0.9
			c0.3,0.3,0.6,0.8,0.8,1.2C82.6,18.7,82.7,19.2,82.7,19.9z"/>
		<path fill="#FFFFFF" d="M95.2,24.1c0,0.1,0,0.1,0,0.2c0,0.1-0.1,0.1-0.2,0.1c-0.1,0-0.2,0.1-0.3,0.1c-0.1,0-0.3,0-0.5,0
			c-0.2,0-0.4,0-0.5,0c-0.1,0-0.3,0-0.3-0.1c-0.1,0-0.1-0.1-0.2-0.1c0,0,0-0.1,0-0.2V8.6c0-0.1,0-0.1,0.1-0.2c0-0.1,0.1-0.1,0.2-0.1
			c0.1,0,0.2-0.1,0.3-0.1c0.1,0,0.3,0,0.5,0c0.2,0,0.4,0,0.5,0c0.1,0,0.2,0,0.3,0.1c0.1,0,0.1,0.1,0.2,0.1c0,0,0,0.1,0,0.2V24.1z"/>
		<path fill="#FFFFFF" d="M119.2,16.1c0,1.4-0.2,2.6-0.5,3.7c-0.4,1-0.9,1.9-1.6,2.6c-0.7,0.7-1.5,1.2-2.5,1.5
			c-1,0.3-2.2,0.5-3.6,0.5h-3.4c-0.2,0-0.4-0.1-0.5-0.2c-0.2-0.1-0.3-0.4-0.3-0.7V9.1c0-0.3,0.1-0.6,0.3-0.7
			c0.2-0.1,0.4-0.2,0.5-0.2h3.7c1.4,0,2.6,0.2,3.5,0.5c1,0.4,1.8,0.9,2.4,1.6c0.7,0.7,1.1,1.5,1.5,2.5
			C119.1,13.8,119.2,14.9,119.2,16.1z M117,16.2c0-0.9-0.1-1.7-0.3-2.4c-0.2-0.8-0.6-1.4-1-2c-0.5-0.5-1-1-1.8-1.3s-1.6-0.5-2.7-0.5
			h-2.2v12.6h2.2c1,0,1.9-0.1,2.6-0.4c0.7-0.3,1.3-0.7,1.8-1.2c0.5-0.5,0.8-1.2,1.1-2C116.8,18.2,117,17.3,117,16.2z"/>
		<path fill="#FFFFFF" d="M138.8,23.5c0,0.2,0,0.3,0,0.4c0,0.1,0,0.2-0.1,0.3c0,0.1-0.1,0.1-0.1,0.2c-0.1,0-0.1,0-0.2,0h-7.8
			c-0.2,0-0.4-0.1-0.5-0.2c-0.2-0.1-0.3-0.4-0.3-0.7V9.1c0-0.3,0.1-0.6,0.3-0.7c0.2-0.1,0.4-0.2,0.5-0.2h7.7c0.1,0,0.1,0,0.2,0
			c0.1,0,0.1,0.1,0.1,0.2s0.1,0.2,0.1,0.3c0,0.1,0,0.3,0,0.4c0,0.2,0,0.3,0,0.4c0,0.1,0,0.2-0.1,0.3c0,0.1-0.1,0.1-0.1,0.2
			c-0.1,0-0.1,0.1-0.2,0.1h-6.3v5.1h5.4c0.1,0,0.1,0,0.2,0.1c0.1,0,0.1,0.1,0.1,0.2c0,0.1,0.1,0.2,0.1,0.3c0,0.1,0,0.3,0,0.4
			c0,0.1,0,0.3,0,0.4s0,0.2-0.1,0.3c0,0.1-0.1,0.1-0.1,0.1c-0.1,0-0.1,0-0.2,0h-5.4v5.8h6.4c0.1,0,0.1,0,0.2,0.1
			c0.1,0,0.1,0.1,0.1,0.2c0,0.1,0.1,0.2,0.1,0.3C138.8,23.2,138.8,23.4,138.8,23.5z"/>
	</g>
</g>
</svg>
